<svg width="4" height="6" viewBox="0 0 4 6" fill="none" xmlns="http://www.w3.org/2000/svg">
<path d="M3 3L3.35355 2.64645C3.54882 2.84171 3.54882 3.15829 3.35355 3.35355L3 3ZM0.646446 1.35355C0.451185 1.15829 0.451185 0.841709 0.646446 0.646447C0.841709 0.451184 1.15829 0.451184 1.35355 0.646447L0.646446 1.35355ZM1.35355 5.35355C1.15829 5.54882 0.841709 5.54882 0.646446 5.35355C0.451185 5.15829 0.451185 4.84171 0.646446 4.64645L1.35355 5.35355ZM2.64645 3.35355L0.646446 1.35355L1.35355 0.646447L3.35355 2.64645L2.64645 3.35355ZM3.35355 3.35355L1.35355 5.35355L0.646446 4.64645L2.64645 2.64645L3.35355 3.35355Z" fill="#989898"/>
</svg>
