<svg xmlns="http://www.w3.org/2000/svg" width="30" height="30" viewBox="0 0 30 30" fill="none">
<g clip-path="url(#clip0_8230_41312)">
<path d="M2.42335 21.6344C6.36954 30.3306 15.9895 30.7279 19.9183 27.7082C21.8621 26.3534 21.8546 23.8826 22.1549 21.3484C22.3747 19.4928 24.5978 16.8232 25.5705 14.8654C26.7918 14.5985 28.1139 14.1739 26.7097 13.1098C25.1969 11.8825 25.0914 12.924 24.8049 14.3151C23.8538 15.9444 22.4588 19.255 20.7182 19.5649C19.8624 19.7173 17.8848 17.797 17.2069 17.0063C15.7214 15.2648 17.8833 12.0915 18.3219 9.68655C18.3807 9.34203 17.471 8.93867 17.4234 9.52304C17.0597 12.8126 15.8478 15.0281 14.1926 16.4097C10.8328 19.2139 5.41751 20.1059 1.86113 17.3981C1.34554 17.0901 1.06134 17.6508 1.33583 17.9382C3.74273 20.4496 11.6091 19.5478 12.1813 23.5375C13.3145 31.0959 4.87328 25.4421 3.36507 21.3453C2.96939 20.8698 2.17865 21.1002 2.42335 21.6344Z" fill="#EB517A"/>
<path d="M15.3036 0.227417C5.78417 -0.532275 0.266931 8.1759 1.00578 13.0757C1.56213 16.1032 3.41481 16.6227 5.48645 18.1128C7.00342 19.204 8.94639 22.6592 9.30698 24.3938C8.94895 25.5915 8.41599 26.6666 10.2912 26.2409C12.2056 25.5715 10.8413 24.4841 10.1592 23.9906C9.63798 22.3327 7.17071 19.3928 7.74265 17.7198C8.02383 16.8973 10.6617 16.0972 11.6818 15.8871C13.925 15.4311 15.6541 18.8594 17.5456 20.4081C17.8185 20.6264 18.612 20.0258 18.1239 19.7011C15.4221 17.7897 14.0707 15.6563 13.6638 13.539C12.8378 9.24137 14.6804 4.07168 18.7719 2.27186C19.2911 1.96995 18.9382 1.44974 18.5538 1.55066C15.1909 2.44 12.1698 9.75881 8.40212 8.327C1.2406 5.65743 10.7857 0.526518 15.1004 1.19132C15.7081 1.0755 15.8894 0.272078 15.3036 0.227417Z" fill="#88AA00"/>
<path d="M26.576 22.9353C32.2387 15.2457 28.3531 5.68993 23.4294 4.04397C20.951 3.10715 18.2198 4.46867 16.7871 5.19708C15.1214 6.04397 10.3004 5.90642 8.72968 5.5672C7.90045 4.63166 7.26771 3.61213 6.64125 5.43011C6.2011 7.40981 7.84423 6.82354 8.62317 6.50399C10.3768 6.65456 14.8117 5.95388 15.9321 7.32165C16.4829 7.9941 15.7726 10.6576 15.4134 11.6352C14.6188 13.7819 10.7939 13.4445 8.48095 14.2358C8.15159 14.3527 8.24374 15.3436 8.77697 15.0998C11.8253 13.8111 14.3506 13.7871 16.3644 14.5571C20.452 16.1202 23.8744 20.4107 23.2475 24.8364C23.2305 25.4368 23.8586 25.411 23.9754 25.0312C24.992 21.7045 20.3644 15.2797 23.5669 12.8324C29.61 8.15323 28.7028 18.9382 25.8639 22.2546C25.6421 22.8321 26.2292 23.4097 26.576 22.9353Z" fill="#37ABC8"/>
</g>
<defs>
<clipPath id="clip0_8230_41312">
<rect width="30" height="30" fill="white"/>
</clipPath>
</defs>
</svg>